<svg width="16" height="16" viewBox="0 0 16 16" fill="none" xmlns="http://www.w3.org/2000/svg">
<line y1="13.5" x2="16" y2="13.5" stroke="#444444"/>
<line x1="0.5" y1="16" x2="0.5" y2="11" stroke="#444444"/>
<line x1="15.5" y1="11" x2="15.5" y2="16" stroke="#444444"/>
<path d="M5.27148 2.42188V11H4.1875V3.77539L2.00195 4.57227V3.59375L5.10156 2.42188H5.27148ZM12.6191 2.45703H12.7129V3.37695H12.6191C12.0449 3.37695 11.5645 3.4707 11.1777 3.6582C10.791 3.8418 10.4844 4.08984 10.2578 4.40234C10.0312 4.71094 9.86719 5.05859 9.76562 5.44531C9.66797 5.83203 9.61914 6.22461 9.61914 6.62305V7.87695C9.61914 8.25586 9.66406 8.5918 9.75391 8.88477C9.84375 9.17383 9.9668 9.41797 10.123 9.61719C10.2793 9.81641 10.4551 9.9668 10.6504 10.0684C10.8496 10.1699 11.0566 10.2207 11.2715 10.2207C11.5215 10.2207 11.7441 10.1738 11.9395 10.0801C12.1348 9.98242 12.2988 9.84766 12.4316 9.67578C12.5684 9.5 12.6719 9.29297 12.7422 9.05469C12.8125 8.81641 12.8477 8.55469 12.8477 8.26953C12.8477 8.01562 12.8164 7.77148 12.7539 7.53711C12.6914 7.29883 12.5957 7.08789 12.4668 6.9043C12.3379 6.7168 12.1758 6.57031 11.9805 6.46484C11.7891 6.35547 11.5605 6.30078 11.2949 6.30078C10.9941 6.30078 10.7129 6.375 10.4512 6.52344C10.1934 6.66797 9.98047 6.85938 9.8125 7.09766C9.64844 7.33203 9.55469 7.58789 9.53125 7.86523L8.95703 7.85938C9.01172 7.42188 9.11328 7.04883 9.26172 6.74023C9.41406 6.42773 9.60156 6.17383 9.82422 5.97852C10.0508 5.7793 10.3027 5.63477 10.5801 5.54492C10.8613 5.45117 11.1582 5.4043 11.4707 5.4043C11.8965 5.4043 12.2637 5.48438 12.5723 5.64453C12.8809 5.80469 13.1348 6.01953 13.334 6.28906C13.5332 6.55469 13.6797 6.85547 13.7734 7.19141C13.8711 7.52344 13.9199 7.86523 13.9199 8.2168C13.9199 8.61914 13.8633 8.99609 13.75 9.34766C13.6367 9.69922 13.4668 10.0078 13.2402 10.2734C13.0176 10.5391 12.7422 10.7461 12.4141 10.8945C12.0859 11.043 11.7051 11.1172 11.2715 11.1172C10.8105 11.1172 10.4082 11.0234 10.0645 10.8359C9.7207 10.6445 9.43555 10.3906 9.20898 10.0742C8.98242 9.75781 8.8125 9.40625 8.69922 9.01953C8.58594 8.63281 8.5293 8.24023 8.5293 7.8418V7.33203C8.5293 6.73047 8.58984 6.14062 8.71094 5.5625C8.83203 4.98438 9.04102 4.46094 9.33789 3.99219C9.63867 3.52344 10.0547 3.15039 10.5859 2.87305C11.1172 2.5957 11.7949 2.45703 12.6191 2.45703Z" fill="#444444"/>
</svg>
