<svg width="14" height="15" viewBox="0 0 14 15" fill="none" xmlns="http://www.w3.org/2000/svg">
<path d="M10.5644 11.4717V4.47182" stroke="#444444"/>
<line x1="13.0644" y1="11.9717" x2="8.06439" y2="11.9717" stroke="#444444"/>
<line x1="8.06439" y1="3.97168" x2="13.0644" y2="3.97168" stroke="#444444"/>
<path d="M6.12784 9.66329C6.13023 10.1828 6.01117 10.6248 5.77066 10.9892C5.53403 11.3496 5.21107 11.6246 4.80179 11.8139C4.3964 12.0033 3.93786 12.0992 3.42614 12.1015C2.91443 12.1039 2.45306 12.0123 2.04205 11.8267C1.63103 11.641 1.30556 11.3691 1.06563 11.0108C0.825676 10.6486 0.704505 10.2078 0.702113 9.68827C0.700549 9.34843 0.763572 9.03759 0.891182 8.75575C1.02268 8.46998 1.20708 8.22108 1.44439 8.00905C1.6856 7.797 1.97001 7.63358 2.29761 7.51879C2.6291 7.40007 2.99406 7.3398 3.39249 7.33797C3.91593 7.33556 4.38319 7.43497 4.79427 7.6362C5.20534 7.83353 5.52887 8.10744 5.76486 8.45792C6.00476 8.80838 6.12575 9.21017 6.12784 9.66329ZM5.0379 9.64487C5.03644 9.32847 4.9668 9.04949 4.82896 8.80793C4.69111 8.56247 4.49883 8.37195 4.25211 8.23636C4.00539 8.10078 3.71992 8.03373 3.3957 8.03522C3.06368 8.03675 2.77688 8.10643 2.53533 8.24426C2.29768 8.38208 2.11302 8.57434 1.98134 8.82104C1.84964 9.06384 1.78452 9.34344 1.78598 9.65984C1.78749 9.98796 1.85324 10.2689 1.98322 10.5027C2.11709 10.7325 2.30541 10.9094 2.54817 11.0333C2.79482 11.1533 3.08611 11.2125 3.42204 11.2109C3.75798 11.2094 4.04676 11.1475 4.28838 11.0253C4.52999 10.8992 4.71472 10.7206 4.84256 10.4895C4.9743 10.2545 5.03941 9.97299 5.0379 9.64487ZM5.9102 5.66229C5.9121 6.07635 5.80445 6.4499 5.58723 6.78293C5.37001 7.11597 5.07239 7.37906 4.69437 7.57221C4.31635 7.76536 3.8871 7.86304 3.40664 7.86525C2.91836 7.8675 2.48238 7.7738 2.09869 7.58416C1.71891 7.3945 1.42083 7.13415 1.20446 6.80311C0.988092 6.47207 0.878954 6.09952 0.877048 5.68547C0.874764 5.18938 0.980242 4.76701 1.19348 4.41837C1.41063 4.06971 1.70823 3.80271 2.08629 3.61738C2.46435 3.43204 2.89556 3.33826 3.37993 3.33603C3.86821 3.33378 4.30222 3.42358 4.68197 3.60543C5.06171 3.78727 5.35981 4.05153 5.57625 4.39819C5.7966 4.74484 5.90791 5.16621 5.9102 5.66229ZM4.82631 5.68486C4.82499 5.39971 4.76329 5.14804 4.64119 4.92985C4.51909 4.71166 4.35033 4.54056 4.13491 4.41655C3.91948 4.28863 3.66918 4.22533 3.38403 4.22664C3.09888 4.22796 2.84916 4.28965 2.63487 4.41173C2.42448 4.52989 2.25924 4.69862 2.13915 4.91793C2.02297 5.13722 1.96558 5.39725 1.96696 5.69803C1.96831 5.99099 2.02808 6.24658 2.14627 6.46479C2.26837 6.68298 2.43712 6.85212 2.65252 6.97223C2.86792 7.09233 3.1182 7.15173 3.40335 7.15041C3.6885 7.1491 3.93627 7.08741 4.14665 6.96535C4.36093 6.84327 4.52811 6.67257 4.6482 6.45327C4.76829 6.23396 4.82765 5.97783 4.82631 5.68486Z" fill="#444444"/>
</svg>
