<svg width="24" height="24" viewBox="0 0 24 24" fill="none" xmlns="http://www.w3.org/2000/svg">
<path d="M21.2 2H2.8C2.3575 2 2 2.3575 2 2.8V21.2C2 21.6425 2.3575 22 2.8 22H21.2C21.6425 22 22 21.6425 22 21.2V2.8C22 2.3575 21.6425 2 21.2 2ZM14.1625 7.9725H17.6225V8.815H14.1625V7.9725ZM12 14.92C11.8382 15.2272 11.6071 15.4925 11.325 15.695C11.03 15.9 10.7025 16.05 10.355 16.1375C9.99143 16.2349 9.61638 16.2829 9.24 16.28H5.1V7.7525H9.125C9.5325 7.7525 9.9025 7.79 10.24 7.86C10.575 7.93 10.86 8.05 11.1 8.2125C11.3375 8.375 11.525 8.5925 11.6575 8.8625C11.7875 9.13 11.855 9.465 11.855 9.8625C11.855 10.2925 11.7575 10.6475 11.5625 10.935C11.365 11.2225 11.08 11.455 10.6925 11.6375C11.22 11.7875 11.6075 12.055 11.8625 12.43C12.1225 12.81 12.25 13.265 12.25 13.8C12.25 14.235 12.1675 14.6075 12 14.92ZM18.97 13.6H14.51C14.51 14.085 14.6775 14.55 14.93 14.8C15.185 15.0475 15.55 15.1725 16.0275 15.1725C16.3725 15.1725 16.665 15.085 16.915 14.9125C17.1625 14.74 17.3125 14.5575 17.3675 14.3675H18.8625C18.6225 15.11 18.2575 15.64 17.7625 15.96C17.2725 16.28 16.6725 16.44 15.975 16.44C15.4875 16.44 15.05 16.36 14.6575 16.2075C14.28 16.06 13.94 15.835 13.66 15.545C13.3839 15.2472 13.1705 14.8969 13.0325 14.515C12.88 14.0925 12.805 13.6475 12.81 13.2C12.81 12.7375 12.8875 12.3075 13.0375 11.9075C13.325 11.13 13.9225 10.5075 14.685 10.185C15.0925 10.015 15.53 9.93 15.9725 9.935C16.4975 9.935 16.9525 10.035 17.3475 10.24C17.7278 10.4358 18.0579 10.7163 18.3125 11.06C18.565 11.4025 18.7425 11.7925 18.855 12.2325C18.9625 12.665 19 13.12 18.97 13.6ZM15.92 11.21C15.65 11.21 15.4225 11.2575 15.2475 11.35C15.0725 11.4425 14.9275 11.5575 14.8175 11.69C14.7127 11.8179 14.6353 11.966 14.59 12.125C14.55 12.2575 14.5225 12.3925 14.5125 12.53H17.275C17.235 12.0975 17.085 11.7775 16.885 11.5525C16.675 11.33 16.3375 11.21 15.92 11.21ZM9.7075 10.9575C9.925 10.8 10.03 10.54 10.03 10.1825C10.0375 10.0125 10.0025 9.845 9.9275 9.6925C9.86 9.57 9.76 9.4675 9.6375 9.395C9.51048 9.31797 9.36941 9.26698 9.2225 9.245C9.0625 9.215 8.9 9.2 8.74 9.2025H6.9825V11.195H8.885C9.2125 11.1975 9.49 11.1175 9.7075 10.9575ZM10.0025 12.7575C9.7575 12.57 9.43 12.4775 9.0225 12.4775H6.9775V14.8275H8.9825C9.17 14.8275 9.3425 14.81 9.51 14.775C9.6775 14.74 9.8275 14.68 9.955 14.595C10.0825 14.5125 10.185 14.4 10.2625 14.255C10.3375 14.11 10.375 13.925 10.375 13.7025C10.375 13.26 10.25 12.9475 10.0025 12.7575Z" fill="#444444"/>
</svg>
