<svg width="32" height="32" viewBox="0 0 32 32" fill="none" xmlns="http://www.w3.org/2000/svg">
<g clip-path="url(#clip0_586_7005)">
<path d="M3.00636 17.3626C2.63285 17.5128 2.20858 17.332 2.05873 16.9588C1.90888 16.5856 2.09019 16.1614 2.46371 16.0112C2.83722 15.861 3.26149 16.0418 3.41134 16.415C3.56119 16.7881 3.37988 17.2124 3.00636 17.3626Z" stroke="#735F3C" stroke-linecap="round" stroke-linejoin="round"/>
<path d="M2.09165 16.0576C2.01944 15.9854 1.71764 15.6918 1.62311 15.6403C1.10179 15.3565 0.421495 15.5985 0.421495 15.5985C0.421495 15.5985 0.586835 16.3003 1.10783 16.5841C1.24867 16.6609 1.4012 16.6991 1.54877 16.714L1.84709 16.7275C1.71308 16.7131 1.2727 16.7019 1.13289 16.7388C0.558541 16.8905 0.229852 17.5329 0.229852 17.5329C0.229852 17.5329 0.832578 17.9291 1.40677 17.7777C1.6204 17.7212 1.80018 17.5969 1.94152 17.4629L2.11571 17.3047C1.99239 17.417 1.70734 17.7139 1.63702 17.8831C1.4091 18.4313 1.72116 19.0814 1.72116 19.0814C1.72116 19.0814 2.40235 18.842 2.63025 18.2941C2.68064 18.1731 2.68033 17.6815 2.68725 17.5586L2.71358 17.9242C2.72007 18.0335 2.74054 18.1447 2.78161 18.2528C2.99271 18.8072 3.66655 19.0651 3.66655 19.0651C3.66655 19.0651 3.99775 18.4239 3.78689 17.8696C3.74371 17.7563 3.34929 17.3072 3.34929 17.3072L3.64583 17.5995C4.02067 17.8394 4.48174 17.9138 4.90946 17.7898C5.03965 17.7521 5.12193 17.7148 5.12193 17.7148C5.12193 17.7148 4.89741 17.0295 4.35361 16.7914C4.19567 16.7221 4.02803 16.6983 3.86972 16.6993L3.59983 16.6964C3.60024 16.6962 4.26241 16.6582 4.44698 16.556C4.96611 16.268 5.12753 15.5647 5.12753 15.5647C5.12753 15.5647 4.44583 15.3284 3.92606 15.6164C3.81851 15.6761 3.4919 16.0384 3.41332 16.1237L3.64659 15.8399C3.7264 15.7374 3.79496 15.6198 3.83708 15.4872C4.01697 14.9219 3.65098 14.3006 3.65098 14.3006C3.65098 14.3006 2.9924 14.5967 2.81236 15.1624C2.77744 15.2718 2.73607 15.6977 2.73542 15.8064L2.75324 15.4948C2.7512 15.3677 2.72759 15.2419 2.68344 15.1227C2.47239 14.5684 1.79855 14.3105 1.79855 14.3105C1.79855 14.3105 1.46723 14.9515 1.6782 15.506C1.7243 15.624 1.79006 15.7333 1.8727 15.8294L2.09165 16.0576Z" stroke="#735F3C" stroke-linecap="round" stroke-linejoin="round"/>
<path d="M3.17939 17.3778C3.83155 17.6737 4.76 18.3551 5.0734 19.884" stroke="#735F3C" stroke-linecap="round" stroke-linejoin="round"/>
<path fill-rule="evenodd" clip-rule="evenodd" d="M19.8947 7.8568C20.8787 5.89664 23.3533 4.66074 25.836 5.07271C27.0387 5.27205 28.0667 5.83817 28.796 6.70728C29.524 7.57507 30 8.80034 30 10.4017C30 11.9645 28.9587 13.3705 27.396 13.3705C26.568 13.3705 25.9387 13.017 25.472 12.5426C24.984 12.0469 24.7133 11.4635 24.6373 11.1565C24.573 10.8999 24.409 10.6793 24.1814 10.5433C23.9539 10.4072 23.6814 10.3668 23.424 10.4309C23.1666 10.4951 22.9452 10.6585 22.8087 10.8853C22.6722 11.1121 22.6316 11.3837 22.696 11.6402C22.8587 12.2874 23.304 13.1884 24.0453 13.9393C24.6155 14.5272 25.329 14.9576 26.116 15.1885C26.1212 15.1974 26.1265 15.2063 26.132 15.215C27.4147 17.453 28.3227 20.2131 28.008 22.5627C27.7 24.8657 26.872 26.3966 25.4133 27.396C23.9053 28.4312 21.5653 29.0066 18 29.0066H14.6573C13.1693 29.0013 11.6547 27.5448 11.0707 25.2365C10.5853 23.3122 10.8653 21.1461 12.2314 19.5363C12.9214 19.6057 13.5896 19.1868 13.809 18.4997C14.3165 16.9103 14.0069 15.5431 13.3421 14.5205C12.7177 13.56 11.8208 12.957 11.1393 12.6724C10.398 12.3629 9.54951 12.6929 9.20771 13.4103C8.76298 13.5067 8.21901 13.527 7.67067 13.425C6.92267 13.2855 6.33733 12.9532 6.00933 12.4748C6.09067 11.4303 6.66667 10.2608 7.55333 9.22426C8.29733 8.35249 9.17467 7.67341 9.96133 7.29201C11.6117 9.55289 13.3618 10.9093 14.8954 12.0978L14.9 12.1014C15.1984 12.331 15.4948 12.5632 15.7893 12.7977C16.6787 13.51 17.492 14.233 18.1987 15.1606L18.2093 15.1739C18.9453 16.144 19.568 17.3387 20.0387 18.9812C20.0727 19.1094 20.1319 19.2295 20.2131 19.3345C20.2942 19.4396 20.3955 19.5274 20.5111 19.5929C20.6268 19.6585 20.7543 19.7004 20.8864 19.7161C21.0184 19.7319 21.1523 19.7213 21.2802 19.6849C21.4081 19.6485 21.5274 19.587 21.6311 19.5041C21.7349 19.4211 21.821 19.3184 21.8844 19.2019C21.9478 19.0854 21.9873 18.9574 22.0005 18.8255C22.0137 18.6936 22.0004 18.5604 21.9613 18.4337C21.416 16.5294 20.676 15.122 19.8173 13.9871C19.108 12.9134 18.8773 11.9379 18.924 10.9944C18.9733 10.015 19.324 8.99569 19.8947 7.8568ZM9.765 15.3281C8.98826 15.5184 8.1166 15.5369 7.30267 15.3852C6.08133 15.1566 4.772 14.4988 4.10533 13.1712L4 12.9625V12.7273C4 10.9691 4.904 9.25217 6.03067 7.93388C6.964 6.83885 8.15067 5.90328 9.33333 5.38633V4.0893C9.33333 3.82496 9.43869 3.57145 9.62623 3.38454C9.81376 3.19762 10.0681 3.09261 10.3333 3.09261C10.5985 3.09261 10.8529 3.19762 11.0404 3.38454C11.228 3.57145 11.3333 3.82496 11.3333 4.0893V5.77704C12.8718 7.996 14.4835 9.24781 16.0899 10.4955L16.0907 10.496C16.1496 10.542 16.2086 10.5879 16.2675 10.6338C16.4849 10.803 16.7026 10.9724 16.9187 11.1459C16.92 11.0622 16.9227 10.9784 16.9267 10.896C16.996 9.52194 17.4787 8.21561 18.1053 6.96509C19.5187 4.15043 22.8973 2.56237 26.164 3.1059C27.7973 3.377 29.2693 4.16239 30.3307 5.42886C31.3947 6.69798 32 8.39236 32 10.4017C32 12.3898 30.7827 14.7273 28.416 15.2549C29.5333 17.5128 30.3333 20.2623 29.9907 22.8258C29.632 25.5062 28.604 27.6298 26.548 29.0385C24.5453 30.4126 21.7173 31 18 31H7.66667C7.40145 31 7.1471 30.895 6.95956 30.7081C6.77202 30.5212 6.66667 30.2676 6.66667 30.0033C6.66667 29.739 6.77202 29.4855 6.95956 29.2985C7.1471 29.1116 7.40145 29.0066 7.66667 29.0066H10.7627C9.98933 28.075 9.432 26.9096 9.132 25.7228C8.696 23.9952 8.736 22.0205 9.48533 20.2331C8.25867 20.354 6.83867 20.2065 5.31733 19.6417C5.19424 19.596 5.08139 19.5265 4.98522 19.4373C4.88906 19.3481 4.81146 19.2409 4.75686 19.1219C4.70226 19.0028 4.67172 18.8741 4.667 18.7433C4.66228 18.6125 4.68346 18.482 4.72933 18.3593C4.77521 18.2366 4.84488 18.1241 4.93437 18.0283C5.02386 17.9324 5.13141 17.8551 5.25089 17.8007C5.37037 17.7462 5.49943 17.7158 5.63071 17.7111C5.76198 17.7064 5.89291 17.7275 6.016 17.7732C8.19103 18.5823 9.90615 18.2912 10.8962 17.8222C10.908 17.7437 10.9262 17.6651 10.9511 17.5871C11.1711 16.8983 11.026 16.462 10.8269 16.1556C10.5874 15.7872 10.2113 15.536 9.98339 15.4408C9.90641 15.4087 9.83352 15.3709 9.765 15.3281Z" fill="#FCC34F"/>
</g>
<defs>
<clipPath id="clip0_586_7005">
<rect width="32" height="32" fill="white"/>
</clipPath>
</defs>
</svg>
