<svg width="128" height="164" viewBox="0 0 128 164" fill="none" xmlns="http://www.w3.org/2000/svg">
<g filter="url(#filter0_d_586_6997)">
<path d="M0 8C0 3.58172 3.58172 0 8 0H112C116.418 0 120 3.58172 120 8V148C120 152.418 116.418 156 112 156H8C3.58172 156 0 152.418 0 148V8Z" fill="#F9FCFE"/>
<path d="M0 8C0 3.58172 3.58172 0 8 0H112C116.418 0 120 3.58172 120 8V120H0V8Z" fill="#324F8E"/>
<path d="M30.2469 86.2048H25.9443V90.7346H24.0867V80.0453H30.8784V81.543H25.9443V84.722H30.2469V86.2048ZM36.2824 86.616H34.2118V90.7346H32.3542V80.0453H36.1135C37.347 80.0453 38.2991 80.3219 38.9697 80.8749C39.6403 81.428 39.9756 82.2281 39.9756 83.2756C39.9756 83.9901 39.8018 84.5897 39.4543 85.0742C39.1116 85.554 38.6319 85.9235 38.0152 86.1828L40.4161 90.6392V90.7346H38.4263L36.2824 86.616ZM34.2118 85.1258H36.1208C36.7474 85.1258 37.2369 84.969 37.5893 84.6558C37.9417 84.3376 38.118 83.9046 38.118 83.3563C38.118 82.7836 37.954 82.3408 37.626 82.0276C37.3029 81.7144 36.8184 81.5529 36.1722 81.543H34.2118V85.1258ZM47.9861 85.9625H43.5954V89.2515H48.7277V90.7346H41.7377V80.0453H48.6763V81.543H43.5954V84.4943H47.9861V85.9625ZM56.4886 85.9625H52.0978V89.2515H57.2301V90.7346H50.2402V80.0453H57.1788V81.543H52.0978V84.4943H56.4886V85.9625ZM64.3448 86.7629V90.7346H62.4872V80.0453H66.577C67.7712 80.0453 68.7186 80.3561 69.4184 80.9777C70.1233 81.5994 70.4758 82.4215 70.4758 83.4445C70.4758 84.4919 70.1307 85.3067 69.4405 85.8892C68.7553 86.4715 67.7933 86.7629 66.555 86.7629H64.3448ZM64.3448 85.2724H66.577C67.2378 85.2724 67.742 85.1183 68.0895 84.8099C68.437 84.4967 68.6108 84.0465 68.6108 83.4591C68.6108 82.8816 68.4346 82.4215 68.0821 82.0788C67.7298 81.7314 67.2452 81.5529 66.6283 81.543H64.3448V85.2724ZM76.7829 88.2458H72.6419L71.7755 90.7346H69.8443L73.8826 80.0453H75.5494L79.5951 90.7346H77.6567L76.7829 88.2458ZM73.1631 86.7481H76.2617L74.7123 82.3139L73.1631 86.7481ZM86.4014 87.9814C86.4014 87.5115 86.2351 87.1494 85.9022 86.895C85.5741 86.6405 84.9795 86.3836 84.1179 86.1241C83.2564 85.8648 82.5712 85.576 82.0622 85.2578C81.0879 84.646 80.6009 83.8483 80.6009 82.8643C80.6009 82.0031 80.9508 81.2933 81.6509 80.7355C82.3557 80.1774 83.2686 79.8984 84.3897 79.8984C85.1336 79.8984 85.797 80.0355 86.3794 80.3097C86.962 80.5838 87.4195 80.9754 87.7524 81.4843C88.0853 81.9883 88.2519 82.5488 88.2519 83.1656H86.4014C86.4014 82.6075 86.2253 82.1718 85.8727 81.8586C85.5252 81.5406 85.026 81.3815 84.3749 81.3815C83.7681 81.3815 83.2957 81.5112 82.9577 81.7707C82.6251 82.03 82.4585 82.392 82.4585 82.8572C82.4585 83.2487 82.6397 83.5765 83.0019 83.8409C83.3642 84.1004 83.9612 84.3549 84.7936 84.6043C85.6257 84.8492 86.2938 85.1306 86.7978 85.4488C87.3021 85.762 87.6716 86.1241 87.9067 86.5353C88.1416 86.9414 88.259 87.4185 88.259 87.9668C88.259 88.8575 87.9163 89.5673 87.2311 90.096C86.5507 90.6195 85.6257 90.8815 84.4556 90.8815C83.6822 90.8815 82.9702 90.7394 82.3191 90.4556C81.6729 90.1669 81.1687 89.7703 80.8066 89.2664C80.4492 88.7622 80.2704 88.1748 80.2704 87.5043H82.128C82.128 88.1111 82.3289 88.581 82.7303 88.9138C83.1318 89.2467 83.7067 89.413 84.4556 89.413C85.1017 89.413 85.5863 89.2834 85.9094 89.0241C86.2375 88.7598 86.4014 88.4123 86.4014 87.9814ZM95.4766 87.9814C95.4766 87.5115 95.3103 87.1494 94.9774 86.895C94.6493 86.6405 94.0547 86.3836 93.1931 86.1241C92.3316 85.8648 91.6464 85.576 91.1373 85.2578C90.1631 84.646 89.6761 83.8483 89.6761 82.8643C89.6761 82.0031 90.026 81.2933 90.7261 80.7355C91.4309 80.1774 92.3438 79.8984 93.4649 79.8984C94.2088 79.8984 94.8722 80.0355 95.4546 80.3097C96.0372 80.5838 96.4947 80.9754 96.8276 81.4843C97.1605 81.9883 97.327 82.5488 97.327 83.1656H95.4766C95.4766 82.6075 95.3005 82.1718 94.9479 81.8586C94.6004 81.5406 94.1012 81.3815 93.45 81.3815C92.8432 81.3815 92.3709 81.5112 92.0329 81.7707C91.7003 82.03 91.5337 82.392 91.5337 82.8572C91.5337 83.2487 91.7149 83.5765 92.077 83.8409C92.4394 84.1004 93.0364 84.3549 93.8687 84.6043C94.7008 84.8492 95.369 85.1306 95.873 85.4488C96.3772 85.762 96.7468 86.1241 96.9819 86.5353C97.2168 86.9414 97.3342 87.4185 97.3342 87.9668C97.3342 88.8575 96.9915 89.5673 96.3063 90.096C95.6259 90.6195 94.7008 90.8815 93.5308 90.8815C92.7574 90.8815 92.0452 90.7394 91.3942 90.4556C90.7481 90.1669 90.2439 89.7703 89.8818 89.2664C89.5244 88.7622 89.3456 88.1748 89.3456 87.5043H91.2032C91.2032 88.1111 91.4041 88.581 91.8055 88.9138C92.2067 89.2467 92.7819 89.413 93.5308 89.413C94.1769 89.413 94.6615 89.2834 94.9846 89.0241C95.3127 88.7598 95.4766 88.4123 95.4766 87.9814Z" fill="#F9FCFE"/>
<path d="M25.9443 99.7004V103.672H24.0867V92.9828H28.1764C29.3707 92.9828 30.3179 93.2936 31.0179 93.9152C31.7227 94.5369 32.0752 95.359 32.0752 96.382C32.0752 97.4294 31.7301 98.2442 31.0399 98.8267C30.3546 99.409 29.3928 99.7004 28.1544 99.7004H25.9443ZM25.9443 98.2099H28.1764C28.8372 98.2099 29.3414 98.0558 29.6889 97.7474C30.0364 97.4342 30.2102 96.984 30.2102 96.3966C30.2102 95.8191 30.034 95.359 29.6816 95.0163C29.3291 94.6689 28.8445 94.4904 28.2278 94.4805H25.9443V98.2099ZM40.4875 101.183H36.3464L35.48 103.672H33.5489L37.5872 92.9828H39.254L43.2996 103.672H41.3612L40.4875 101.183ZM36.8677 99.6856H39.9662L38.4169 95.2514L36.8677 99.6856ZM50.5518 99.5535H48.4813V103.672H46.6237V92.9828H50.3828C51.6164 92.9828 52.5685 93.2594 53.2391 93.8124C53.9097 94.3655 54.2449 95.1656 54.2449 96.2131C54.2449 96.9276 54.0712 97.5272 53.7237 98.0117C53.381 98.4915 52.9014 98.861 52.2845 99.1203L54.6857 103.577V103.672H52.6958L50.5518 99.5535ZM48.4813 98.0633H50.3903C51.0167 98.0633 51.5064 97.9065 51.8587 97.5933C52.2112 97.2751 52.3874 96.8421 52.3874 96.2938C52.3874 95.7211 52.2234 95.2783 51.8956 94.9651C51.5725 94.6519 51.0879 94.4904 50.4418 94.4805H48.4813V98.0633ZM61.1814 99.0544L59.97 100.339V103.672H58.1124V92.9828H59.97V97.9971L60.9979 96.7271L64.1259 92.9828H66.3727L62.4004 97.7182L66.6002 103.672H64.3974L61.1814 99.0544ZM71.6644 103.672H69.814V92.9828H71.6644V103.672ZM84.5335 103.672H82.6759L77.9107 96.0882V103.672H76.0531V92.9828H77.9107L82.6905 100.596V92.9828H84.5335V103.672ZM97.0282 102.285C96.6416 102.789 96.1055 103.17 95.4203 103.43C94.7348 103.689 93.9567 103.819 93.0853 103.819C92.1897 103.819 91.3966 103.616 90.7064 103.21C90.0162 102.803 89.4827 102.223 89.1057 101.47C88.7338 100.711 88.5404 99.8277 88.5258 98.8193V97.9825C88.5258 96.3671 88.9123 95.1069 89.686 94.2016C90.4593 93.2912 91.5385 92.8359 92.9237 92.8359C94.1132 92.8359 95.0579 93.1297 95.758 93.7171C96.458 94.3044 96.8788 95.151 97.021 96.2572H95.2001C94.9944 94.9699 94.2479 94.3262 92.9604 94.3262C92.1283 94.3262 91.4944 94.6274 91.059 95.2294C90.6281 95.8265 90.4054 96.705 90.3908 97.8648V98.6873C90.3908 99.8423 90.6331 100.74 91.1177 101.381C91.6071 102.018 92.2851 102.336 93.1514 102.336C94.101 102.336 94.7766 102.12 95.178 101.69V99.5976H92.9753V98.1879H97.0282V102.285Z" fill="#F9FCFE"/>
<path fill-rule="evenodd" clip-rule="evenodd" d="M50.8284 49.1353H46.5976L46.5606 36.8655C46.5606 36.8655 47.128 36.4335 47.6954 36.0631C48.2628 35.6928 48.8549 35.6064 48.8549 35.6064C48.8549 35.6064 51.1121 31.2984 52.7157 29.0148C53.0537 28.5334 55.7009 28.2742 55.7009 28.2742C58.5513 28.0259 63.0401 28.2248 63.0401 28.2248C63.0401 28.2248 64.8903 28.2619 65.9017 28.3853C65.941 28.3901 65.9798 28.3948 66.0189 28.3995L66.0199 28.3997L66.0202 28.3997L66.0213 28.3998V28.3998L66.0215 28.3999C67.1488 28.5366 68.1212 28.6545 68.5537 29.3851C70.33 32.3847 72.0938 35.6064 72.0938 35.6064C72.0938 35.6064 74.2155 36.2236 74.3634 36.7297C74.5114 37.2358 74.3634 49.1353 74.3634 49.1353H70.1204V47.6293L50.8284 47.5183V49.1353ZM53.6533 29.8776H67.3696L69.7009 34.6176C69.7009 34.6176 66.847 35.3798 65.1246 35.6421C63.314 35.9179 62.4907 35.9532 60.6594 35.9754C58.598 36.0003 57.2431 35.9676 55.2075 35.6421C53.6129 35.3872 51.3589 34.6176 51.3589 34.6176L53.6533 29.8776ZM51.3095 41.6919C52.3996 41.6919 53.2832 40.6419 53.2832 39.3466C53.2832 38.0513 52.3996 37.0013 51.3095 37.0013C50.2194 37.0013 49.336 38.0513 49.336 39.3466C49.336 40.6419 50.2194 41.6919 51.3095 41.6919ZM71.6868 39.3466C71.6868 40.6419 70.8031 41.6919 69.7133 41.6919C68.6233 41.6919 67.7396 40.6419 67.7396 39.3466C67.7396 38.0513 68.6233 37.0013 69.7133 37.0013C70.8031 37.0013 71.6868 38.0513 71.6868 39.3466ZM56.5035 40.3578C56.2102 40.3578 55.9721 40.5957 55.9721 40.8891C55.9721 41.1825 56.2102 41.4204 56.5035 41.4204H64.4206C64.7141 41.4204 64.9519 41.1825 64.9519 40.8891C64.9519 40.5957 64.7141 40.3578 64.4206 40.3578H56.5035ZM53.6777 43.2842L56.3422 43.951C56.3422 43.951 57.5765 44.1218 58.365 44.21C59.2221 44.3061 60.5361 44.3829 60.5361 44.3829C60.5361 44.3829 61.8786 44.363 62.707 44.2719C63.496 44.185 63.8836 44.134 64.656 43.951C65.6541 43.7143 67.1969 43.2842 67.1969 43.2842V45.0077C67.1969 45.0077 65.6655 45.5217 64.656 45.7366C63.9447 45.8878 63.5404 45.9518 62.818 46.0339C61.9312 46.1348 61.4285 46.1622 60.5361 46.1603C59.6724 46.1587 59.187 46.1247 58.3281 46.0339C57.5484 45.9518 57.1111 45.8912 56.3422 45.7366C55.2848 45.5238 53.6777 45.0077 53.6777 45.0077V43.2842ZM75.3379 33.5697C75.3379 34.2514 74.5096 34.8041 73.4878 34.8041C72.4657 34.8041 71.6374 34.2514 71.6374 33.5697C71.6374 32.888 72.4657 32.3353 73.4878 32.3353C74.5096 32.3353 75.3379 32.888 75.3379 33.5697ZM49.336 33.5697C49.336 34.2514 48.5076 34.8041 47.4857 34.8041C46.4639 34.8041 45.6355 34.2514 45.6355 33.5697C45.6355 32.888 46.4639 32.3353 47.4857 32.3353C48.5076 32.3353 49.336 32.888 49.336 33.5697Z" fill="#F9FCFE"/>
<path d="M60.7553 15C45.6001 15 34.4771 26.2153 34.4771 40.109C34.4771 56.8484 60.4137 78.2231 60.4137 78.2231C60.4137 78.2231 86.4963 56.8484 86.4963 40.109C86.4963 26.2153 75.9105 15 60.7553 15ZM60.7553 23.3697C65.598 23.3697 70.2423 25.1333 73.6666 28.2725C77.0909 31.4117 78.6477 35.6694 78.6477 40.109C78.6477 49.3992 70.8892 56.8484 60.7553 56.8484C55.9126 56.8484 51.2683 55.0848 47.8441 51.9454C44.4198 48.8063 42.7641 44.5486 42.7641 40.109C42.7641 35.6694 44.4198 31.4117 47.8441 28.2725C51.2683 25.1333 55.9126 23.3697 60.7553 23.3697Z" fill="#F9FCFE"/>
<path d="M24.6941 134.192V138.096H30.3101V139.472H24.6941V144H23.0941V132.8H30.9981V134.192H24.6941ZM34.3421 136.944C34.6087 136.453 35.0034 136.08 35.5261 135.824C36.0487 135.568 36.6834 135.44 37.4301 135.44V136.928C37.3447 136.917 37.2274 136.912 37.0781 136.912C36.2461 136.912 35.5901 137.163 35.1101 137.664C34.6407 138.155 34.4061 138.859 34.4061 139.776V144H32.8701V135.52H34.3421V136.944ZM46.9091 139.808C46.9091 139.925 46.8984 140.08 46.8771 140.272H39.9971C40.0931 141.019 40.4184 141.621 40.9731 142.08C41.5384 142.528 42.2371 142.752 43.0691 142.752C44.0824 142.752 44.8984 142.411 45.5171 141.728L46.3651 142.72C45.9811 143.168 45.5011 143.509 44.9251 143.744C44.3597 143.979 43.7251 144.096 43.0211 144.096C42.1251 144.096 41.3304 143.915 40.6371 143.552C39.9437 143.179 39.4051 142.661 39.0211 142C38.6477 141.339 38.4611 140.592 38.4611 139.76C38.4611 138.939 38.6424 138.197 39.0051 137.536C39.3784 136.875 39.8851 136.363 40.5251 136C41.1757 135.627 41.9064 135.44 42.7171 135.44C43.5277 135.44 44.2477 135.627 44.8771 136C45.5171 136.363 46.0131 136.875 46.3651 137.536C46.7277 138.197 46.9091 138.955 46.9091 139.808ZM42.7171 136.736C41.9811 136.736 41.3624 136.96 40.8611 137.408C40.3704 137.856 40.0824 138.443 39.9971 139.168H45.4371C45.3517 138.453 45.0584 137.872 44.5571 137.424C44.0664 136.965 43.4531 136.736 42.7171 136.736ZM56.7059 139.808C56.7059 139.925 56.6953 140.08 56.6739 140.272H49.7939C49.8899 141.019 50.2153 141.621 50.7699 142.08C51.3353 142.528 52.0339 142.752 52.8659 142.752C53.8793 142.752 54.6953 142.411 55.3139 141.728L56.1619 142.72C55.7779 143.168 55.2979 143.509 54.7219 143.744C54.1566 143.979 53.5219 144.096 52.8179 144.096C51.9219 144.096 51.1273 143.915 50.4339 143.552C49.7406 143.179 49.2019 142.661 48.8179 142C48.4446 141.339 48.2579 140.592 48.2579 139.76C48.2579 138.939 48.4393 138.197 48.8019 137.536C49.1753 136.875 49.6819 136.363 50.3219 136C50.9726 135.627 51.7033 135.44 52.5139 135.44C53.3246 135.44 54.0446 135.627 54.6739 136C55.3139 136.363 55.8099 136.875 56.1619 137.536C56.5246 138.197 56.7059 138.955 56.7059 139.808ZM52.5139 136.736C51.7779 136.736 51.1593 136.96 50.6579 137.408C50.1673 137.856 49.8793 138.443 49.7939 139.168H55.2339C55.1486 138.453 54.8553 137.872 54.3539 137.424C53.8633 136.965 53.2499 136.736 52.5139 136.736ZM67.7277 132.8C69.1784 132.8 70.3197 133.147 71.1517 133.84C71.9837 134.533 72.3997 135.488 72.3997 136.704C72.3997 137.92 71.9837 138.875 71.1517 139.568C70.3197 140.261 69.1784 140.608 67.7277 140.608H64.9597V144H63.3597V132.8H67.7277ZM67.6797 139.216C68.693 139.216 69.4664 139.003 69.9997 138.576C70.533 138.139 70.7997 137.515 70.7997 136.704C70.7997 135.893 70.533 135.275 69.9997 134.848C69.4664 134.411 68.693 134.192 67.6797 134.192H64.9597V139.216H67.6797ZM77.5362 135.44C78.7095 135.44 79.6055 135.728 80.2242 136.304C80.8535 136.88 81.1682 137.739 81.1682 138.88V144H79.7122V142.88C79.4562 143.275 79.0882 143.579 78.6082 143.792C78.1389 143.995 77.5789 144.096 76.9282 144.096C75.9789 144.096 75.2162 143.867 74.6402 143.408C74.0749 142.949 73.7922 142.347 73.7922 141.6C73.7922 140.853 74.0642 140.256 74.6082 139.808C75.1522 139.349 76.0162 139.12 77.2002 139.12H79.6322V138.816C79.6322 138.155 79.4402 137.648 79.0562 137.296C78.6722 136.944 78.1069 136.768 77.3602 136.768C76.8589 136.768 76.3682 136.853 75.8882 137.024C75.4082 137.184 75.0029 137.403 74.6722 137.68L74.0322 136.528C74.4695 136.176 74.9922 135.909 75.6002 135.728C76.2082 135.536 76.8535 135.44 77.5362 135.44ZM77.1842 142.912C77.7709 142.912 78.2775 142.784 78.7042 142.528C79.1309 142.261 79.4402 141.888 79.6322 141.408V140.224H77.2642C75.9629 140.224 75.3122 140.661 75.3122 141.536C75.3122 141.963 75.4775 142.299 75.8082 142.544C76.1389 142.789 76.5975 142.912 77.1842 142.912ZM86.4427 144.096C85.7494 144.096 85.0827 144.005 84.4427 143.824C83.8027 143.632 83.3014 143.392 82.9387 143.104L83.5787 141.888C83.952 142.155 84.4054 142.368 84.9387 142.528C85.472 142.688 86.0107 142.768 86.5547 142.768C87.8987 142.768 88.5707 142.384 88.5707 141.616C88.5707 141.36 88.48 141.157 88.2987 141.008C88.1174 140.859 87.888 140.752 87.6107 140.688C87.344 140.613 86.96 140.533 86.4587 140.448C85.776 140.341 85.216 140.219 84.7787 140.08C84.352 139.941 83.984 139.707 83.6747 139.376C83.3654 139.045 83.2107 138.581 83.2107 137.984C83.2107 137.216 83.5307 136.603 84.1707 136.144C84.8107 135.675 85.6694 135.44 86.7467 135.44C87.312 135.44 87.8774 135.509 88.4427 135.648C89.008 135.787 89.472 135.973 89.8347 136.208L89.1787 137.424C88.4854 136.976 87.6694 136.752 86.7307 136.752C86.08 136.752 85.584 136.859 85.2427 137.072C84.9014 137.285 84.7307 137.568 84.7307 137.92C84.7307 138.197 84.8267 138.416 85.0187 138.576C85.2107 138.736 85.4454 138.853 85.7227 138.928C86.0107 139.003 86.4107 139.088 86.9227 139.184C87.6054 139.301 88.1547 139.429 88.5707 139.568C88.9974 139.696 89.36 139.92 89.6587 140.24C89.9574 140.56 90.1067 141.008 90.1067 141.584C90.1067 142.352 89.776 142.965 89.1147 143.424C88.464 143.872 87.5734 144.096 86.4427 144.096ZM94.4583 144.096C93.765 144.096 93.0983 144.005 92.4583 143.824C91.8183 143.632 91.317 143.392 90.9543 143.104L91.5943 141.888C91.9676 142.155 92.421 142.368 92.9543 142.528C93.4876 142.688 94.0263 142.768 94.5703 142.768C95.9143 142.768 96.5863 142.384 96.5863 141.616C96.5863 141.36 96.4956 141.157 96.3143 141.008C96.133 140.859 95.9036 140.752 95.6263 140.688C95.3596 140.613 94.9756 140.533 94.4743 140.448C93.7916 140.341 93.2316 140.219 92.7943 140.08C92.3676 139.941 91.9996 139.707 91.6903 139.376C91.381 139.045 91.2263 138.581 91.2263 137.984C91.2263 137.216 91.5463 136.603 92.1863 136.144C92.8263 135.675 93.685 135.44 94.7623 135.44C95.3276 135.44 95.893 135.509 96.4583 135.648C97.0236 135.787 97.4876 135.973 97.8503 136.208L97.1943 137.424C96.501 136.976 95.685 136.752 94.7463 136.752C94.0956 136.752 93.5996 136.859 93.2583 137.072C92.917 137.285 92.7463 137.568 92.7463 137.92C92.7463 138.197 92.8423 138.416 93.0343 138.576C93.2263 138.736 93.461 138.853 93.7383 138.928C94.0263 139.003 94.4263 139.088 94.9383 139.184C95.621 139.301 96.1703 139.429 96.5863 139.568C97.013 139.696 97.3756 139.92 97.6743 140.24C97.973 140.56 98.1223 141.008 98.1223 141.584C98.1223 142.352 97.7916 142.965 97.1303 143.424C96.4796 143.872 95.589 144.096 94.4583 144.096Z" fill="#444444"/>
</g>
<defs>
<filter id="filter0_d_586_6997" x="0" y="0" width="128" height="164" filterUnits="userSpaceOnUse" color-interpolation-filters="sRGB">
<feFlood flood-opacity="0" result="BackgroundImageFix"/>
<feColorMatrix in="SourceAlpha" type="matrix" values="0 0 0 0 0 0 0 0 0 0 0 0 0 0 0 0 0 0 127 0" result="hardAlpha"/>
<feOffset dx="4" dy="4"/>
<feGaussianBlur stdDeviation="2"/>
<feComposite in2="hardAlpha" operator="out"/>
<feColorMatrix type="matrix" values="0 0 0 0 0 0 0 0 0 0 0 0 0 0 0 0 0 0 0.25 0"/>
<feBlend mode="normal" in2="BackgroundImageFix" result="effect1_dropShadow_586_6997"/>
<feBlend mode="normal" in="SourceGraphic" in2="effect1_dropShadow_586_6997" result="shape"/>
</filter>
</defs>
</svg>
