<svg width="20" height="20" viewBox="0 0 20 20" fill="none" xmlns="http://www.w3.org/2000/svg">
<rect width="20" height="20" rx="2" fill="#444444"/>
<path d="M15.6083 4.50858L14.5417 5.34191L9.99999 8.71691L5.45832 5.30858L4.39166 4.47524C4.14037 4.26736 3.83361 4.13778 3.5094 4.10253C3.18518 4.06729 2.85775 4.12795 2.56766 4.27698C2.27758 4.42601 2.0376 4.65688 1.87744 4.94097C1.71728 5.22506 1.644 5.5499 1.66666 5.87524V15.5336C1.66666 15.8342 1.78606 16.1224 1.9986 16.335C2.21114 16.5475 2.49941 16.6669 2.79999 16.6669H5.45832V10.2336L10 13L14.5417 10.2336V16.6669H17.2C17.5006 16.6669 17.7888 16.5475 18.0014 16.335C18.2139 16.1224 18.3333 15.8342 18.3333 15.5336V5.87524C18.349 5.55271 18.2706 5.23258 18.1077 4.95376C17.9448 4.67494 17.7044 4.44945 17.4158 4.30468C17.1271 4.15992 16.8027 4.10213 16.4818 4.13832C16.1609 4.17452 15.8575 4.30315 15.6083 4.50858Z" fill="#F9FCFE"/>
</svg>
