<svg width="74" height="67" viewBox="0 0 74 67" fill="none" xmlns="http://www.w3.org/2000/svg">
<path d="M13.6667 26.9997V66.9997H0.333328V26.9997H13.6667ZM27 66.9997C25.2319 66.9997 23.5362 66.2973 22.2859 65.0471C21.0357 63.7968 20.3333 62.1011 20.3333 60.333V26.9997C20.3333 25.1663 21.0667 23.4997 22.3 22.2997L44.2333 0.333008L47.7667 3.86634C48.6667 4.76634 49.2333 5.99967 49.2333 7.36634L49.1333 8.43301L45.9667 23.6663H67C68.7681 23.6663 70.4638 24.3687 71.714 25.619C72.9643 26.8692 73.6667 28.5649 73.6667 30.333V36.9997C73.6667 37.8663 73.5 38.6663 73.2 39.433L63.1333 62.933C62.1333 65.333 59.7667 66.9997 57 66.9997H27ZM27 60.333H57.1L67 36.9997V30.333H37.7L41.4667 12.5997L27 27.0997V60.333Z" fill="#FCC34F"/>
</svg>
