<svg width="49" height="49" viewBox="0 0 49 49" fill="none" xmlns="http://www.w3.org/2000/svg">
<path fill-rule="evenodd" clip-rule="evenodd" d="M12.1506 24.4999C12.1506 24.1021 12.3107 23.7206 12.5955 23.4393C12.8803 23.158 13.2666 22.9999 13.6695 22.9999H31.2666L24.7448 16.5619C24.4596 16.2803 24.2993 15.8983 24.2993 15.4999C24.2993 15.1016 24.4596 14.7196 24.7448 14.4379C25.03 14.1563 25.4168 13.998 25.8201 13.998C26.2234 13.998 26.6102 14.1563 26.8954 14.4379L36.0084 23.4379C36.1498 23.5773 36.2621 23.7428 36.3386 23.925C36.4152 24.1073 36.4546 24.3026 36.4546 24.4999C36.4546 24.6972 36.4152 24.8926 36.3386 25.0748C36.2621 25.2571 36.1498 25.4226 36.0084 25.5619L26.8954 34.5619C26.6102 34.8436 26.2234 35.0018 25.8201 35.0018C25.4168 35.0018 25.03 34.8436 24.7448 34.5619C24.4596 34.2803 24.2993 33.8983 24.2993 33.4999C24.2993 33.1016 24.4596 32.7196 24.7448 32.4379L31.2666 25.9999H13.6695C13.2666 25.9999 12.8803 25.8419 12.5955 25.5606C12.3107 25.2793 12.1506 24.8978 12.1506 24.4999Z" fill="#444444"/>
</svg>
