<svg width="24" height="24" viewBox="0 0 24 24" fill="none" xmlns="http://www.w3.org/2000/svg">
<path d="M12 6.05357C8.75446 6.05357 6.11607 8.69196 6.11161 11.9375C6.11161 13.0491 6.42411 14.1339 7.01339 15.067L7.15179 15.2902L6.55804 17.4598L8.78571 16.875L9 17.0045C9.90179 17.5402 10.9375 17.8259 11.9955 17.8259H12C15.2411 17.8259 17.9509 15.1875 17.9509 11.942C17.9509 10.3705 17.2723 8.89286 16.1607 7.78125C15.0446 6.66518 13.5714 6.05357 12 6.05357ZM15.4598 14.4643C15.3125 14.8795 14.6071 15.2545 14.2679 15.3036C13.7054 15.3884 13.2679 15.3438 12.1473 14.8616C10.375 14.0938 9.21429 12.308 9.125 12.192C9.03571 12.0759 8.40179 11.2321 8.40179 10.3616C8.40179 9.49107 8.85714 9.0625 9.02232 8.88393C9.18304 8.70536 9.375 8.66071 9.49554 8.66071C9.61161 8.66071 9.73214 8.66071 9.83482 8.66518C9.94196 8.66964 10.0893 8.625 10.2321 8.96875C10.3795 9.32143 10.7321 10.192 10.7768 10.2812C10.8214 10.3705 10.8527 10.4732 10.7902 10.5893C10.4509 11.2679 10.0893 11.2411 10.2723 11.5536C10.9554 12.7277 11.6384 13.1339 12.6786 13.6563C12.8571 13.7455 12.9598 13.7321 13.0625 13.6116C13.1652 13.4955 13.5045 13.0938 13.6205 12.9196C13.7366 12.7411 13.8571 12.7723 14.0179 12.8304C14.1786 12.8884 15.0491 13.317 15.2277 13.4062C15.4062 13.4955 15.5223 13.5402 15.567 13.6116C15.6071 13.6964 15.6071 14.0536 15.4598 14.4643ZM19.8571 2H4.14286C2.95982 2 2 2.95982 2 4.14286V19.8571C2 21.0402 2.95982 22 4.14286 22H19.8571C21.0402 22 22 21.0402 22 19.8571V4.14286C22 2.95982 21.0402 2 19.8571 2ZM11.9955 19.0179C10.808 19.0179 9.64286 18.7188 8.61161 18.1562L4.85714 19.1429L5.86161 15.4732C5.24107 14.4018 4.91518 13.183 4.91518 11.933C4.91964 8.03125 8.09375 4.85714 11.9955 4.85714C13.8884 4.85714 15.6652 5.59375 17.0045 6.93304C18.3393 8.27232 19.1429 10.0491 19.1429 11.942C19.1429 15.8438 15.8973 19.0179 11.9955 19.0179Z" fill="#444444"/>
</svg>
